<?xml version="1.0" standalone="no"?>
<!DOCTYPE svg PUBLIC "-//W3C//DTD SVG 20010904//EN" "http://www.w3.org/TR/2001/REC-SVG-20010904/DTD/svg10.dtd">
<svg xmlns="http://www.w3.org/2000/svg" version="1.0" width="1024.000000pt" height="1024.000000pt" viewBox="0 0 1024.000000 1024.000000" preserveAspectRatio="xMidYMid meet">
<metadata>
Created by potrace 1.16, written by Peter Selinger 2001-2019
<meta name="Producer" content="Online-Convert"/></metadata>
<g transform="translate(0.000000,1024.000000) scale(0.100000,-0.100000)" fill="#000000" stroke="none">
<path d="M6239 9206 c-6 -5 -1716 -16 -2734 -17 -473 -1 -912 -5 -975 -9 -191 -13 -350 -65 -487 -158 -163 -111 -784 -717 -968 -946 -114 -141 -171 -292 -184 -489 -4 -62 -6 -1111 -5 -2332 3 -2394 2 -2324 54 -2485 43 -129 87 -197 214 -328 198 -204 447 -400 991 -781 333 -233 669 -442 838 -521 99 -46 202 -76 317 -90 113 -14 4109 -14 4281 0 268 22 426 86 614 250 174 152 558 527 701 684 251 275 319 384 360 571 15 73 17 202 20 1485 2 773 0 1842 -5 2375 -7 856 -10 977 -25 1027 -56 195 -179 356 -457 600 -446 391 -1381 991 -1701 1093 -121 39 -222 54 -418 65 -175 10 -423 13 -431 6z m211 -217 c194 -36 426 -164 542 -300 123 -144 274 -411 353 -623 38 -104 40 -137 6 -156 -13 -6 -935 -10 -2767 -10 -1729 -1 -2787 -4 -2853 -11 -132 -12 -386 -70 -509 -116 -51 -19 -95 -33 -98 -30 -8 8 36 99 81 166 49 75 156 200 309 363 127 136 463 455 560 532 88 70 208 130 311 157 96 24 343 42 475 35 139 -8 2682 -5 3040 4 326 7 462 5 550 -11z m707 -120 c216 -75 530 -259 872 -512 550 -406 736 -553 857 -678 95 -98 146 -173 174 -252 20 -56 20 -83 20 -2210 0 -2368 4 -2199 -61 -2330 -39 -76 -164 -204 -229 -234 -159 -73 -245 -84 -682 -86 -355 -2 -360 -2 -377 19 -16 20 -17 136 -12 1835 7 2762 7 2720 -7 2859 -36 344 -118 703 -219 955 -94 234 -205 408 -364 568 -65 65 -91 97 -79 97 10 0 58 -14 107 -31z m246 -1160 c57 -15 73 -63 113 -349 27 -187 27 -972 1 -1175 -10 -77 -22 -143 -26 -147 -4 -4 -80 68 -169 161 -237 247 -495 448 -908 705 -114 71 -342 226 -508 345 -268 192 -478 333 -592 398 l-39 22 38 1 c23 0 36 4 32 10 -3 6 3 10 15 10 12 0 18 -4 15 -11 -5 -7 4 -9 27 -5 70 11 153 15 128 7 -51 -17 -118 -50 -124 -59 -14 -23 14 -19 79 13 84 41 196 65 354 75 185 11 1520 11 1564 -1z m-5240 -16 l166 -6 4 -2286 c3 -1654 7 -2319 16 -2406 53 -545 153 -926 323 -1228 66 -117 126 -196 227 -299 52 -54 89 -98 82 -98 -21 0 -215 115 -381 226 -665 443 -779 525 -1055 760 -338 287 -376 332 -432 499 l-27 80 -8 2160 c-5 1545 -4 2174 4 2210 68 312 360 417 1081 388z m1571 -4 c26 0 28 -2 11 -9 -11 -4 -38 -6 -60 -4 l-40 5 32 -17 c27 -14 39 -15 70 -6 40 12 123 23 123 16 0 -10 -63 -34 -92 -34 l-33 -1 27 -14 c24 -14 31 -13 65 4 21 11 49 22 63 26 24 6 24 5 -5 -20 l-30 -27 54 27 54 27 28 -21 c30 -23 44 -27 34 -11 -8 13 5 13 25 0 10 -7 11 -10 2 -10 -22 0 -123 -73 -114 -82 5 -5 41 13 84 43 l76 51 31 -18 c22 -13 27 -21 18 -27 -8 -5 -5 -6 8 -3 11 3 31 -1 44 -8 l25 -14 -35 -31 c-19 -17 -50 -43 -70 -57 l-36 -25 -184 93 c-101 51 -218 108 -259 126 l-75 33 64 -5 c35 -3 78 -6 95 -7z m-401 -15 c188 -97 1172 -671 1229 -717 l26 -22 -211 -172 c-117 -94 -273 -220 -348 -280 -265 -210 -1030 -892 -1189 -1060 -52 -55 -136 -150 -185 -210 -97 -119 -120 -141 -122 -114 -5 78 -2 2542 3 2555 4 10 16 22 28 26 12 5 182 9 379 9 313 1 362 -1 390 -15z m1231 -10 l69 -6 -66 -66 -66 -66 -36 17 c-20 10 -42 15 -48 11 -7 -3 11 15 38 40 28 25 53 45 58 46 4 0 7 5 7 11 0 13 -42 -12 -81 -47 -24 -23 -37 -25 -101 -15 -16 2 -7 24 24 57 30 31 35 33 83 29 27 -3 81 -7 119 -11z m278 -52 c84 -28 285 -138 274 -150 -3 -3 -14 2 -23 10 -25 22 -83 50 -83 40 0 -4 21 -18 46 -31 26 -12 43 -26 38 -30 -5 -4 -33 -24 -61 -45 -29 -21 -53 -42 -53 -47 0 -6 28 12 61 40 34 27 70 52 80 54 11 3 44 -11 81 -36 35 -22 69 -42 76 -43 23 -4 121 -67 117 -75 -3 -4 3 -6 13 -5 9 0 16 -5 14 -12 -1 -8 2 -11 7 -7 6 3 42 -16 82 -42 l71 -47 -34 -31 c-86 -76 -87 -77 -131 -70 -47 7 -135 24 -155 31 -9 2 7 22 40 51 86 78 111 104 104 110 -3 3 -13 -3 -23 -14 -10 -11 -45 -43 -78 -70 -44 -37 -69 -51 -92 -51 l-32 -1 57 48 c31 27 70 63 86 80 17 17 37 31 45 31 11 0 12 3 4 11 -9 9 -35 -8 -103 -70 -84 -75 -110 -93 -110 -73 0 4 39 42 86 86 47 43 82 81 79 84 -3 3 -45 -34 -94 -82 l-88 -88 -53 27 -54 27 82 79 c45 43 82 82 82 87 0 4 -37 -27 -82 -70 -46 -42 -89 -78 -96 -78 -17 0 -132 58 -132 68 0 4 37 42 83 86 90 86 59 72 -41 -19 l-63 -58 -37 17 c-43 20 -92 55 -76 56 13 0 173 150 160 150 -13 0 -68 -41 -126 -96 -49 -46 -58 -51 -80 -42 -24 9 -23 12 70 98 52 49 91 89 87 90 -5 0 -49 -35 -99 -77 -49 -43 -93 -80 -99 -81 -5 -2 -16 2 -24 8 -8 7 -43 26 -77 42 l-62 29 70 70 69 71 55 -6 c30 -3 94 -18 142 -34z m-441 -135 c233 -128 244 -135 243 -154 0 -15 6 -18 28 -15 16 3 28 0 28 -7 0 -6 8 -11 17 -11 17 0 91 -46 105 -65 4 -5 8 -6 8 -2 0 4 10 3 21 -4 20 -10 14 -15 -70 -61 l-92 -49 -32 20 c-18 11 -58 34 -89 52 l-57 31 60 55 c33 31 57 58 54 61 -3 3 -24 -13 -48 -35 -67 -65 -78 -68 -139 -37 -51 26 -209 114 -236 132 -11 7 -2 20 35 55 26 25 45 48 43 51 -3 3 -29 -16 -57 -42 l-52 -48 -32 16 -32 17 73 56 c40 32 75 57 79 57 4 0 68 -33 142 -73z m965 -587 c526 -49 804 -113 1065 -246 312 -158 572 -371 876 -716 l121 -136 -9 -49 c-14 -75 -28 -112 -74 -198 -65 -119 -126 -202 -287 -385 -169 -192 -297 -318 -533 -519 -93 -80 -222 -190 -285 -246 -374 -329 -944 -789 -1174 -947 l-70 -48 -133 0 c-195 0 -396 24 -677 81 -399 81 -506 118 -690 241 -254 169 -600 509 -827 811 -105 140 -109 166 -39 304 72 142 246 360 455 569 163 164 698 627 1160 1004 71 58 192 157 269 221 179 146 299 237 345 260 50 25 226 25 507 -1z m2151 -1832 c-42 -89 -1185 -1155 -1707 -1593 -52 -44 -137 -117 -187 -163 l-93 -83 -70 38 c-67 37 -93 62 -49 48 15 -5 19 -4 15 4 -4 6 -27 16 -52 22 -49 13 -51 16 -26 36 11 9 5 8 -18 -3 -19 -9 -38 -21 -41 -27 -4 -5 -12 -8 -19 -5 -7 2 11 21 40 42 138 99 581 462 856 701 89 77 221 192 295 255 74 63 161 140 194 170 251 227 341 305 354 302 8 -2 12 2 8 11 -6 15 159 187 180 187 7 0 26 14 42 32 17 18 33 30 36 26 7 -7 -238 -254 -451 -453 -553 -518 -887 -808 -1367 -1187 -39 -31 -78 -57 -84 -58 -7 0 -13 -4 -13 -10 0 -25 34 -4 180 114 69 56 172 140 230 186 58 46 137 111 175 145 39 33 97 83 130 110 96 79 367 321 510 455 33 31 101 94 150 140 209 193 609 588 631 622 26 40 30 53 14 43 -6 -4 -7 1 -3 11 5 12 3 15 -6 9 -18 -11 1 21 36 62 20 22 33 29 46 24 17 -6 17 -8 -4 -26 l-22 -20 8 25 7 25 -17 -23 c-13 -18 -14 -26 -4 -38 10 -13 15 -13 34 0 13 8 33 12 46 9 24 -5 24 -5 4 11 -13 10 -16 18 -9 23 5 5 11 26 12 48 0 22 -1 34 -4 27 -3 -6 -10 -10 -15 -6 -5 3 -9 1 -9 -4 0 -6 -6 -12 -14 -15 -7 -3 0 19 18 51 l31 57 9 -162 c7 -139 6 -167 -7 -195z m21 -243 l-3 -165 -55 -47 c-30 -27 -109 -97 -174 -158 -292 -269 -574 -531 -712 -660 -82 -77 -296 -270 -476 -429 -181 -158 -328 -292 -328 -297 0 -17 -18 -9 -80 37 l-61 47 23 26 c18 20 18 22 3 10 -34 -27 -41 -28 -69 -10 l-27 18 145 116 c193 156 675 575 861 747 38 36 115 106 169 155 150 135 473 440 629 594 96 95 137 143 137 158 0 13 5 23 11 23 7 0 10 -51 7 -165z m-6 -407 c-3 -102 -8 -145 -18 -151 -26 -15 -64 -49 -1149 -1036 -143 -130 -280 -255 -306 -278 -25 -24 -49 -43 -53 -43 -10 0 -174 109 -181 120 -2 4 14 20 38 36 60 41 140 106 232 189 44 40 114 100 155 134 75 62 193 168 325 291 38 36 95 88 126 115 30 28 129 118 219 200 374 342 433 394 444 388 6 -3 7 -2 3 2 -8 9 110 135 126 135 4 0 5 -4 2 -10 -3 -5 -1 -10 5 -10 7 0 17 14 23 30 6 17 12 30 13 30 1 0 -1 -64 -4 -142z m-4885 -158 c297 -347 741 -745 1293 -1160 91 -68 221 -169 290 -225 69 -55 178 -140 242 -188 65 -49 120 -93 123 -98 8 -12 94 -11 -965 -15 -910 -4 -936 -3 -967 16 -18 10 -39 30 -47 43 -19 29 -41 165 -61 392 -19 206 -33 1359 -17 1354 6 -2 55 -56 109 -119z m4874 -197 l-3 -146 -117 -112 c-119 -114 -417 -388 -551 -506 -182 -160 -369 -326 -415 -370 -27 -25 -80 -72 -117 -103 -36 -31 -68 -60 -70 -65 -3 -9 -76 33 -170 97 l-27 18 62 49 c34 28 65 50 68 50 13 0 372 308 404 346 15 18 15 20 3 10 -10 -7 -18 -11 -18 -8 0 2 30 30 68 62 61 52 234 210 501 457 73 69 107 94 113 85 5 -8 8 -7 8 6 0 9 5 17 11 17 6 0 35 21 66 48 30 26 59 46 64 45 5 -2 9 3 9 10 0 8 10 22 22 33 12 10 18 13 14 7 -11 -19 9 -16 25 4 10 11 10 14 2 9 -24 -14 -13 16 17 51 17 18 30 38 30 43 0 6 1 10 3 10 1 0 1 -66 -2 -147z m-33 -553 c-37 -28 -380 -332 -473 -419 -93 -86 -459 -417 -496 -448 -18 -16 -30 -22 -25 -15 4 7 2 12 -8 12 -10 0 -13 -6 -10 -15 4 -8 2 -15 -4 -15 -11 0 -134 73 -170 101 l-22 17 99 79 c55 43 127 97 161 121 34 25 57 48 54 54 -4 6 -2 8 4 4 6 -3 23 10 39 30 15 20 140 136 277 258 138 121 329 294 426 383 l175 162 3 -142 3 -141 -33 -26z m33 -193 l1 -147 -45 -38 c-25 -20 -158 -137 -295 -260 -312 -278 -322 -286 -381 -286 -101 -1 -255 7 -238 11 9 2 15 8 12 13 -3 4 26 34 63 66 97 83 592 528 747 671 72 67 131 120 132 119 1 -1 3 -68 4 -149z m-3226 -52 c361 -39 517 -53 655 -60 283 -15 312 -27 757 -326 87 -58 220 -144 296 -190 75 -46 136 -88 134 -94 -3 -7 -152 -10 -438 -10 -377 0 -448 2 -539 18 -209 37 -370 104 -575 240 -111 74 -494 360 -555 415 l-45 41 35 -4 c19 -2 143 -15 275 -30z m3234 -348 c0 -89 -3 -156 -6 -149 -10 25 -33 10 -132 -83 -56 -52 -112 -97 -124 -100 -12 -3 -90 -4 -173 -3 l-152 3 76 60 c42 33 157 134 257 225 244 222 239 218 248 213 4 -2 7 -77 6 -166z m1507 -403 c-85 -178 -238 -357 -677 -789 -345 -340 -431 -402 -629 -456 l-85 -24 -1840 -3 c-1907 -3 -2066 -1 -2252 37 -101 21 -226 76 -324 141 -192 129 -396 425 -513 743 -46 123 -54 177 -32 200 16 16 222 17 2917 17 3172 0 2948 -4 3129 56 69 23 195 87 295 148 22 14 42 20 43 15 2 -5 -12 -43 -32 -85z"/>
</g>
</svg>
